<svg xmlns="http://www.w3.org/2000/svg" viewBox="0 0 610.15 864.83"><defs><style>.cls-1{fill:#bbdcd3;}.cls-2{fill:#b5cdc7;}.cls-3{fill:#ed7d33;stroke:#ed7d33;}.cls-3,.cls-4{fill-rule:evenodd;}.cls-4{fill:#bc171d;stroke:#bc171d;}</style></defs><g id="Capa_2" data-name="Capa 2"><g id="Capa_1-2" data-name="Capa 1"><polygon points="319.53 588.75 274.01 588.75 286.39 412.78 307.15 412.78 319.53 588.75"/><polygon points="309.01 315.32 284.52 315.32 296.78 276.84 309.01 315.32"/><path d="M427.05,639.73c.8.07,79.34,7.24,80.61,89.08l-8.5.13h0l-8.5.13c-1-66.55-62.34-72.18-65-72.39l.67-8.47h0Z"/><path d="M479.23,741.46A20.48,20.48,0,1,0,499.75,721,20.52,20.52,0,0,0,479.23,741.46Z"/><path d="M174.21,662.57c-.79.07-79.33,7.25-80.6,89.09l8.5.12h0l8.5.13c1-66.55,62.34-72.17,64.94-72.38l-.67-8.48h0Z"/><path d="M122,764.3a20.48,20.48,0,1,1-20.51-20.49A20.51,20.51,0,0,1,122,764.3Z"/><path d="M142.44,839.83a7.62,7.62,0,0,1-2.87-14.69l33.62-13.63c4.75-12.29,12.63-24.92,23.48-37.61a255.63,255.63,0,0,1,34.05-32.51,345.61,345.61,0,0,1,43.42-29.88,7.62,7.62,0,0,1,7.43,13.31,337.15,337.15,0,0,0-41.48,28.59c-28,22.57-46.56,45.52-53.69,66.36a7.62,7.62,0,0,1-4.35,4.59L145.3,839.27A7.62,7.62,0,0,1,142.44,839.83Z"/><path d="M365.61,864.83a7.93,7.93,0,0,1-5.42-2.15l-22.33-21a14.24,14.24,0,0,1,1.81-22.19l25.71-17.25c8.72-18.25,10.23-34.52,4.49-48.37-9.72-23.45-37.31-33.28-37.58-33.37a7.93,7.93,0,1,1,5.15-15c1.4.48,34.48,12.1,47,42.17,7.66,18.35,6,39.18-5,61.9a14.2,14.2,0,0,1-4.87,5.59L350.2,831.55,371,851.12a7.93,7.93,0,0,1-5.43,13.71Z"/><path d="M156.12,626.45a140.68,140.68,0,1,0,140.66-140.7A140.66,140.66,0,0,0,156.12,626.45Z"/><path class="cls-1" d="M180.34,639.45A93.45,93.45,0,1,0,273.76,546,93.39,93.39,0,0,0,180.34,639.45Z"/><path d="M208.84,649.45a60.94,60.94,0,1,0,61-60.94A61,61,0,0,0,208.84,649.45Z"/><path d="M351.65,366.81a54.87,54.87,0,1,1-54.87-54.88A54.85,54.85,0,0,1,351.65,366.81Z"/><path class="cls-2" d="M324.11,366.81a27.33,27.33,0,1,1-27.34-27.33A27.33,27.33,0,0,1,324.11,366.81Z"/><path d="M192.24,422c-12-16.23-24.38-33-33-55.06-30.95-79.29,3.32-163.9,91.68-226.29l2.52-1.79-1.77-2.52-7.49-10.58-1.79-2.52-.31.22c-54.29-70.73-117.6-134.8-135-121.73-16.53,12.47,22,83.13,71.59,151.93C127.42,113.51,59.42,68.93,46.39,84.71c-13.16,16,44.24,74.81,94,118C86.28,179.6,17.77,157.05,10,173.9a9.25,9.25,0,0,0,.05,7.18C15.86,196.68,59.22,226,118,254.69,70,248.21,3,243.69.09,261.09c-2.76,16.51,58.55,34.23,110.46,44.46C67.23,310.32,9.71,320.69,10.9,336.47a8,8,0,0,0,3,5.47c10.25,8.8,52,12.62,104.44,10C81.68,366.24,33.51,389,38.32,402.7c4.48,12.72,49.13,3.07,85.91-8-24.23,16.13-60.66,43-53.9,54.31,5.4,9.09,35.61.3,68.27-15.43-21.13,18.47-38.56,38.21-33,46,9.12,12.9,65.69-24.82,79.75-34.48,18.17,25.55,32,51.36,23,100.05l-.55,3,3,.56,12.74,2.36,3.05.56.57-3C238.91,485.19,216.24,454.51,192.24,422Z"/><path d="M398.73,413.24c13.89-14.65,28.22-29.8,39.45-50.63,40.37-74.94,16.67-163.09-63.43-235.78l-2.3-2.08,2.09-2.29,8.7-9.58,2.08-2.29.29.26C448.12,47.25,518.76-8.62,534.4,6.46c14.89,14.39-32,79.83-89.56,142.08C500.63,115,573.57,79,584.56,96.25c11.15,17.44-53,68.86-107.63,105.63,56.49-16.31,127.23-30.35,132.87-12.68a9.19,9.19,0,0,1-.94,7.11c-7.63,14.79-54.22,38.6-116.07,59.92,48.47-.57,115.49,3.1,116.26,20.72.74,16.73-62.29,26.85-115.06,30.68,42.43,10,98.25,27.3,95.16,42.83a8.19,8.19,0,0,1-3.7,5.05c-11.25,7.49-53.15,6.2-104.87-2.81,34.68,18.68,79.71,47.14,73.27,60.15-6,12.08-49.13-2.94-84.31-18.37,22.08,19,55,50.06,46.9,60.48-6.47,8.36-35.4-4-65.89-23.63,18.73,20.9,33.63,42.61,27.16,49.68-10.62,11.69-62.18-32.64-74.95-43.93-21.16,23.14-38,47.07-35,96.51l.19,3.09-3.09.19-12.95.78-3.1.19-.18-3.07C344.71,470.3,371,442.6,398.73,413.24Z"/><path class="cls-3" d="M96.73,414.33S73.42,572.61,196,588.13a59.55,59.55,0,0,1,33.91-30.23l27.3-90.58,114.63-11.57L332,562.54l12.35,10.61S466.63,535,408.68,380.77c0,0,137.49,102.3,121.9,255.15,0,0-165,29.57-167.72,38.62,0,0-14.53,66-96.57,57.25l-13.35,25.13-25.57-6.39-1.52-30.14s-19.51-8.88-27.66-28.19l-74-6s-64.12-.24-93.75,3.26C30.43,689.51-25,590.82,96.73,414.33Z"/><path class="cls-4" d="M270.17,482.56l77.58-7.83-49.29,109.7,23.8,5L239.88,749l15.2-122.14-27.57-.39Z"/></g></g></svg>