<svg xmlns="http://www.w3.org/2000/svg" viewBox="0 0 838.25 649.59"><defs><style>.cls-1{fill:#0d0802;}.cls-2{fill:none;stroke:#191817;stroke-linecap:round;stroke-width:18.83px;}.cls-3{fill:#fff;}.cls-4{fill:#d5d4db;}</style></defs><g id="Capa_2" data-name="Capa 2"><g id="Capa_1-2" data-name="Capa 1"><path class="cls-1" d="M382.26,329.52c-1.3-.47-2.09-.72-2.24-.76a9.41,9.41,0,0,0-5.5,18c2.81.88,67.72,21.93,53.15,93.74a9.41,9.41,0,1,0,18.45,3.74c9.4-46.31-9.16-75.36-26.38-91.57A113.39,113.39,0,0,0,382.26,329.52Z"/><path class="cls-1" d="M412.37,451.18a22.67,22.67,0,1,0,27-17.3A22.73,22.73,0,0,0,412.37,451.18Z"/><path class="cls-2" d="M103.93,359.09s-79.34,6.32-80.63,89.42"/><path class="cls-1" d="M45.36,462.36a22.68,22.68,0,1,1-22.7-22.69A22.72,22.72,0,0,1,45.36,462.36Z"/><path class="cls-1" d="M83.1,309.67A155.81,155.81,0,1,0,238.92,153.83,155.85,155.85,0,0,0,83.1,309.67Z"/><path class="cls-3" d="M135.42,309.67A103.5,103.5,0,1,0,238.88,206.12,103.46,103.46,0,0,0,135.42,309.67Z"/><path class="cls-1" d="M83.1,309.67A155.81,155.81,0,1,0,238.92,153.84,155.85,155.85,0,0,0,83.1,309.67Z"/><path class="cls-3" d="M135.42,309.67A103.5,103.5,0,1,0,238.88,206.12,103.46,103.46,0,0,0,135.42,309.67Z"/><path class="cls-1" d="M205.45,324.67c0,37.21,35.49,43.15,67.52,67.44,29.64,22.47,53-44.29,67.43-67.44,15.15-24.27-35.27-86.16-67.43-67.47S205.45,287.44,205.45,324.67Z"/><path class="cls-1" d="M139.7,223.39s92.15-80.43,186.7,0c0,0,5.55,15.51-74.46,19.43C251.94,242.82,188.45,297,139.7,223.39Z"/><circle class="cls-3" cx="276.94" cy="368.82" r="13"/><circle class="cls-3" cx="306.94" cy="312.82" r="20"/><path class="cls-1" d="M347.94,562.62H309.56a9.77,9.77,0,0,1-8.86-13.91c20.23-43.3,12.25-77.87-.73-94.32-5.3-6.71-10.65-9.16-13.37-8.6a9.77,9.77,0,1,1-3.93-19.15c10.95-2.25,23.15,3.6,32.64,15.64,14.92,18.9,25.09,55.72,8.86,100.79h23.77a9.78,9.78,0,1,1,0,19.55Z"/><path class="cls-1" d="M120,556.59H91.37a9.78,9.78,0,1,1,0-19.55h20.29c9.42-36.84,59.8-93.48,66-100.34a9.77,9.77,0,1,1,14.51,13.1c-23.65,26.21-61.52,75.85-62.45,97.44A9.77,9.77,0,0,1,120,556.59Z"/><path d="M710,617.1,524.92,441.22a5,5,0,0,1-9-3,46.92,46.92,0,0,0-.63-6.16l-2.26-2.15c-3.43,5.78-6.72,11.66-10.86,17a3.9,3.9,0,0,1-3.71,1.5,63.78,63.78,0,0,0-3.4,19,5.44,5.44,0,0,1-.15,1.18L683.61,644.69A18.23,18.23,0,0,0,706.89,646l1.43-1.07A18.21,18.21,0,0,0,710,617.1Z"/><path d="M530.68,288.62c6.38.25,7.08,10.23.66,10-5-.19-10-.4-15.06-.34l-.69.49c6.58,2.39,13.39,4.24,20,6.46a5.36,5.36,0,0,1,3.33,7.17,42.44,42.44,0,0,0,5.37,1.61c4.75,1.09,4.79,6.71,1.81,8.95.54,1,1,2,1.49,3.06l135.83-94.67a18.23,18.23,0,0,0,1.75-28.52l-4.42-4a18.21,18.21,0,0,0-22.72-1.29l-128.18,91Z"/><polygon points="733.68 171.29 512.32 0 662 175.18 668.12 221.57 693.79 230.96 838.25 442.36 733.68 171.29"/><path d="M62.83,279.52l26.1-32.78,18.74-97.53L171,76.43c2.56-33.92,30.87-60.52,64.64-61a66.13,66.13,0,0,1,66.22,58.08l60.33,58.75,6.68,58.87L418.74,263Z"/><circle class="cls-4" cx="235.73" cy="69.08" r="41.48"/></g></g></svg>