<svg xmlns="http://www.w3.org/2000/svg" viewBox="0 0 503.48 588.97"><defs><style>.cls-1{fill:#0d0802;}.cls-2{fill:#fff;}.cls-3{font-size:157.28px;}.cls-3,.cls-4,.cls-5{font-family:MyriadPro-Regular, Myriad Pro;}.cls-4{font-size:103.46px;}.cls-5{font-size:66.08px;}</style></defs><g id="Capa_2" data-name="Capa 2"><g id="Capa_1-2" data-name="Capa 1"><path class="cls-1" d="M355.11,481.69h0c2.84.86,69.94,20.38,98.86-48.87l8.89,3.72h0l8.89,3.71C436,525.84,350.26,500.36,349.41,500.1l2.85-9.21h0Z"/><path class="cls-1" d="M447.14,415a23.21,23.21,0,1,1,12.94,30.17A23.24,23.24,0,0,1,447.14,415Z"/><path class="cls-1" d="M114.62,387.38c-.9,0-90.32.94-99.23,93.27l9.59.93h0l9.59.93c7.25-75.1,77.06-75.86,80-75.86l0-9.63h0Z"/><path class="cls-1" d="M46.34,497.54a23.21,23.21,0,1,1-21.26-25A23.25,23.25,0,0,1,46.34,497.54Z"/><circle class="cls-1" cx="243.78" cy="404.34" r="159.47" transform="translate(-214.51 290.81) rotate(-45)"/><path class="cls-2" d="M148.11,358.85a105.93,105.93,0,1,0,141.14-50.21A105.9,105.9,0,0,0,148.11,358.85Z"/><path class="cls-1" d="M181.39,374.71A69.07,69.07,0,0,0,306.15,434c16.36-34.41-36.54,3.4-70.91-12.94S197.76,340.29,181.39,374.71Z"/><rect class="cls-1" x="296.47" y="190.66" width="53.17" height="170.1" transform="translate(-87.42 384.74) rotate(-55.35)"/><path class="cls-1" d="M319.49,230c-5.8,10.13-17.08,14.58-25.2,9.93s-10-16.62-4.22-26.76,17.07-14.59,25.2-9.93S325.29,219.87,319.49,230Z"/><path class="cls-1" d="M355.8,256.85c-6.63,9.59-18.26,13.07-26,7.74s-8.55-17.41-1.92-27,18.25-13.1,25.95-7.78S362.44,247.24,355.8,256.85Z"/><path class="cls-1" d="M392.91,285.26c-7.87,8.6-19.84,10.49-26.77,4.2s-6.14-18.42,1.71-27,19.86-10.51,26.77-4.22S400.77,276.62,392.91,285.26Z"/><path class="cls-1" d="M180.79,530.48l-92.5,8.39-4-20.53A9.58,9.58,0,0,0,73,510.78a9.69,9.69,0,0,0-7.69,11.27L71,551.1l1.68,8.54,109.81-10Z"/><path class="cls-1" d="M138.62,495.91,74.47,563.08,57.93,550.27A9.59,9.59,0,0,0,44.5,552a9.69,9.69,0,0,0,1.63,13.55l23.4,18.13L76.41,589l76.15-79.74Z"/><text class="cls-3" transform="translate(436.16 131.64)">z</text><text class="cls-4" transform="translate(407.68 188.85)">z</text><text class="cls-5" transform="translate(379.68 237.88)">z</text></g></g></svg>