<svg xmlns="http://www.w3.org/2000/svg" viewBox="0 0 787.71 605.53"><defs><style>.cls-1{fill:#0d0802;}.cls-2{fill:none;stroke:#191817;stroke-linecap:round;stroke-width:18.83px;}.cls-3{fill:#fff;}.cls-4{fill:#d5d4db;}</style></defs><g id="Capa_2" data-name="Capa 2"><g id="Capa_1-2" data-name="Capa 1"><path class="cls-1" d="M414,408c-1.37,0-2.2,0-2.36,0a9.42,9.42,0,0,1,1-18.81c2.95.14,71.14,2.44,81.88-70.05a9.42,9.42,0,0,1,18.63,2.76c-6.93,46.75-34.27,67.75-56,77.13A113.42,113.42,0,0,1,414,408Z"/><path class="cls-1" d="M483.73,303.89a22.67,22.67,0,1,1,19.52,25.47A22.73,22.73,0,0,1,483.73,303.89Z"/><path class="cls-2" d="M138.93,391S70.44,369.22,31.44,359.22"/><path class="cls-1" d="M45.36,352.26a22.68,22.68,0,1,1-22.7-22.69A22.72,22.72,0,0,1,45.36,352.26Z"/><path class="cls-1" d="M118.1,341.57A155.81,155.81,0,1,0,273.92,185.72,155.84,155.84,0,0,0,118.1,341.57Z"/><path class="cls-3" d="M170.42,341.57A103.5,103.5,0,1,0,273.88,238,103.45,103.45,0,0,0,170.42,341.57Z"/><path class="cls-1" d="M118.1,341.57A155.81,155.81,0,1,0,273.92,185.74,155.84,155.84,0,0,0,118.1,341.57Z"/><path class="cls-3" d="M170.42,341.57A103.5,103.5,0,1,0,273.88,238,103.45,103.45,0,0,0,170.42,341.57Z"/><path class="cls-1" d="M212.07,338.56A31.85,31.85,0,1,0,244,306.72,31.88,31.88,0,0,0,212.07,338.56Z"/><path class="cls-1" d="M403.71,601.64,426.82,571A9.78,9.78,0,0,0,421,555.54c-46.75-9.91-69.55-37.1-74.87-57.36-2.17-8.27-.91-14,1.18-15.86a9.77,9.77,0,0,0-12.93-14.66c-8.39,7.39-11.06,20.65-7.16,35.48,6.11,23.29,29.39,53.57,75.15,67.75l-14.31,19a9.78,9.78,0,1,0,15.61,11.77Z"/><path class="cls-1" d="M155,588.49H126.37a9.78,9.78,0,1,1,0-19.55h20.29c9.42-36.84,59.8-93.49,66-100.34a9.77,9.77,0,1,1,14.51,13.09c-23.65,26.22-61.52,75.85-62.45,97.44A9.77,9.77,0,0,1,155,588.49Z"/><path d="M626.76,203.17l-3-5.13a18.21,18.21,0,0,0-28.28-4L265,508a18.22,18.22,0,0,0,1.72,27.86l1.43,1.06a18.23,18.23,0,0,0,23.28-1.32l332-309.91A18.21,18.21,0,0,0,626.76,203.17Z"/><polygon points="664.38 156.9 419.84 0 597.91 183.99 601.96 211.02 646.17 226.33 787.71 408.15 664.38 156.9"/><path d="M110.75,222.38,145,198.26l45.4-88.34,81.2-52c12-31.84,46.63-49.41,79.17-40.38A66.12,66.12,0,0,1,398,91.83q20.7,36.67,41.39,73.34l-10.13,58.37,27.69,83Z"/><circle class="cls-4" cx="335.82" cy="69.01" r="41.48"/></g></g></svg>