<svg xmlns="http://www.w3.org/2000/svg" viewBox="0 0 538.71 761.52"><defs><style>.cls-1{fill:#0d0802;}.cls-2{fill:none;stroke:#191817;stroke-linecap:round;stroke-width:18.83px;}.cls-3{fill:#fff;}.cls-4{fill:#d5d4db;}</style></defs><g id="Capa_2" data-name="Capa 2"><g id="Capa_1-2" data-name="Capa 1"><path class="cls-1" d="M379,575c-1.37,0-2.2,0-2.36,0a9.42,9.42,0,0,1,1-18.81c2.95.14,71.14,2.44,81.88-70.05a9.42,9.42,0,0,1,18.63,2.76c-6.93,46.75-34.27,67.75-56,77.13A113.42,113.42,0,0,1,379,575Z"/><path class="cls-1" d="M448.73,470.89a22.67,22.67,0,1,1,19.52,25.47A22.73,22.73,0,0,1,448.73,470.89Z"/><path class="cls-2" d="M103.93,558S24.59,564.3,23.3,647.4"/><path class="cls-1" d="M45.36,661.26a22.68,22.68,0,1,1-22.7-22.69A22.72,22.72,0,0,1,45.36,661.26Z"/><path class="cls-1" d="M83.1,508.57A155.81,155.81,0,1,0,238.92,352.72,155.84,155.84,0,0,0,83.1,508.57Z"/><path class="cls-3" d="M135.42,508.57A103.5,103.5,0,1,0,238.88,405,103.45,103.45,0,0,0,135.42,508.57Z"/><path class="cls-1" d="M83.1,508.57A155.81,155.81,0,1,0,238.92,352.74,155.84,155.84,0,0,0,83.1,508.57Z"/><path class="cls-3" d="M135.42,508.57A103.5,103.5,0,1,0,238.88,405,103.45,103.45,0,0,0,135.42,508.57Z"/><path class="cls-1" d="M191.45,508.57A67.48,67.48,0,1,0,259,441.1,67.53,67.53,0,0,0,191.45,508.57Z"/><path class="cls-1" d="M139.7,422.29s92.15-80.43,186.7,0c0,0,8.56,69.59-71.45,73.51C255,495.8,188.45,495.86,139.7,422.29Z"/><path class="cls-1" d="M347.94,761.52H309.56a9.78,9.78,0,0,1-8.86-13.91c20.23-43.3,12.25-77.88-.73-94.32-5.3-6.71-10.65-9.16-13.37-8.61a9.77,9.77,0,0,1-3.93-19.15c10.95-2.24,23.15,3.61,32.64,15.64,14.92,18.91,25.09,55.72,8.86,100.8h23.77a9.78,9.78,0,1,1,0,19.55Z"/><path class="cls-1" d="M120,755.49H91.37a9.78,9.78,0,1,1,0-19.55h20.29c9.42-36.84,59.8-93.49,66-100.34a9.77,9.77,0,1,1,14.51,13.09c-23.65,26.22-61.52,75.85-62.45,97.44A9.77,9.77,0,0,1,120,755.49Z"/><path d="M171.3,203.17l3-5.13a18.21,18.21,0,0,1,28.28-4L533,508a18.22,18.22,0,0,1-1.72,27.86l-1.43,1.06a18.23,18.23,0,0,1-23.28-1.32l-332-309.91A18.21,18.21,0,0,1,171.3,203.17Z"/><polygon points="133.68 156.9 378.22 0 200.15 183.99 196.1 211.02 151.89 226.33 10.35 408.15 133.68 156.9"/><path d="M62.83,478.42l26.1-32.78,18.74-97.54L171,275.33c2.56-33.92,30.87-60.52,64.64-61a66.12,66.12,0,0,1,66.22,58.08l60.33,58.74L368.84,390l49.9,71.85Z"/><circle class="cls-4" cx="235.73" cy="267.98" r="41.48"/></g></g></svg>